<?xml version="1.0" standalone="no"?>
<!DOCTYPE svg PUBLIC "-//W3C//DTD SVG 20010904//EN"
 "http://www.w3.org/TR/2001/REC-SVG-20010904/DTD/svg10.dtd">
<svg version="1.0" xmlns="http://www.w3.org/2000/svg"
 width="500.000000pt" height="500.000000pt" viewBox="0 0 500.000000 500.000000"
 preserveAspectRatio="xMidYMid meet">
<metadata>
Created by potrace 1.14, written by Peter Selinger 2001-2017
</metadata>
<g transform="translate(0.000000,500.000000) scale(0.100000,-0.100000)"
fill="#000000" stroke="none">
<path d="M0 2500 l0 -2500 2500 0 2500 0 0 2500 0 2500 -2500 0 -2500 0 0
-2500z m4780 1560 l0 -290 -340 0 -340 0 0 -1015 0 -1015 -375 0 -375 0 0
1015 0 1015 -280 0 -280 0 26 -42 c58 -92 119 -257 151 -408 25 -120 25 -476
0 -603 -128 -637 -613 -1029 -1304 -1054 -743 -27 -1272 352 -1414 1015 -29
139 -37 400 -15 548 44 300 155 524 360 730 170 171 368 283 607 344 191 49
149 48 1917 49 l1662 1 0 -290z m-3943 -2855 c67 -20 134 -80 163 -147 19 -44
22 -65 18 -138 -5 -99 -30 -156 -95 -210 -109 -89 -307 -78 -401 23 -58 64
-75 119 -70 221 4 72 9 92 34 133 31 50 104 106 158 122 49 14 137 12 193 -4z
m570 -24 c95 -54 113 -202 35 -284 -31 -32 -106 -57 -174 -57 l-48 0 0 -90 0
-90 -80 0 -80 0 0 276 0 276 153 -4 c139 -3 156 -5 194 -27z m503 -31 l0 -60
-110 0 -110 0 0 -50 0 -50 90 0 90 0 0 -55 0 -55 -90 0 -90 0 0 -50 0 -50 115
0 115 0 0 -60 0 -60 -195 0 -195 0 0 275 0 275 190 0 190 0 0 -60z m324 -90
l81 -144 3 147 3 147 69 0 70 0 0 -275 0 -275 -77 0 -78 0 -95 167 -95 167 -3
-167 -2 -167 -70 0 -70 0 0 275 0 276 92 -3 91 -3 81 -145z m988 138 c3 -7 18
-79 34 -160 15 -82 31 -145 34 -140 4 4 15 45 24 92 10 47 24 116 33 153 l15
68 71 -3 72 -3 35 -157 c19 -87 38 -158 43 -158 4 0 7 6 7 13 0 6 14 78 31
160 l32 147 73 0 c41 0 74 -3 74 -7 -1 -5 -29 -127 -63 -273 l-63 -265 -84 0
-84 0 -41 169 -40 170 -41 -170 -41 -169 -79 -3 -79 -3 -60 263 c-50 217 -61
255 -63 216 l-3 -48 -70 0 -69 0 0 -215 0 -215 -80 0 -80 0 0 215 0 215 -70 0
-70 0 0 60 0 60 299 0 c230 0 300 -3 303 -12z m768 -263 l0 -275 -80 0 -80 0
0 275 0 275 80 0 80 0 0 -275z m344 125 l81 -144 3 147 3 147 69 0 70 0 0
-275 0 -275 -77 0 -78 0 -95 167 -95 167 -3 -167 -2 -167 -70 0 -70 0 0 275 0
276 92 -3 91 -3 81 -145z"/>
<path d="M1442 3744 c-147 -39 -271 -139 -341 -274 -129 -248 -128 -676 2
-925 45 -86 158 -197 239 -235 95 -44 195 -63 303 -57 154 10 269 62 370 168
109 116 168 271 184 480 30 404 -88 687 -333 803 -39 19 -95 39 -124 45 -73
15 -236 13 -300 -5z"/>
<path d="M692 1089 c-87 -26 -111 -197 -38 -276 26 -29 40 -36 73 -37 86 -2
128 50 128 159 0 72 -18 120 -54 142 -27 17 -74 22 -109 12z"/>
<path d="M1220 1019 l0 -72 47 6 c52 6 73 25 73 69 0 41 -32 68 -80 68 l-40 0
0 -71z"/>
</g>
</svg>
