<?xml version="1.0" encoding="utf-8"?>
<svg viewBox="0 0 512 512" xmlns="http://www.w3.org/2000/svg">
  <defs>
    <style type="text/css">
	.st0{fill:#BBBBBB;}
</style>
  </defs>
  <g transform="matrix(1, 0, 0, 1, 3.552713678800501e-15, 0)">
    <path class="st0" d="M 501.195 83.601 C 494.191 70.333 482.093 58.907 466.748 49.057 C 443.657 34.295 412.86 22.772 376.84 14.676 C 340.818 6.606 299.53 2.071 255.586 2.071 C 188.617 2.107 127.874 12.526 82.39 30.193 C 59.647 39.072 40.621 49.777 26.633 62.615 C 19.66 69.037 13.965 76.036 9.977 83.602 C 5.999 91.169 3.781 99.327 3.791 107.676 L 3.791 403.903 C 3.781 412.251 5.999 420.42 9.977 427.977 C 16.983 441.246 29.081 452.67 44.425 462.53 C 67.519 477.293 98.313 488.816 134.335 496.913 C 170.354 504.98 211.644 509.507 255.586 509.515 C 322.569 509.469 383.297 499.063 428.782 481.385 C 451.525 472.506 470.551 461.81 484.539 448.964 C 491.513 442.549 497.206 435.55 501.194 427.976 C 505.173 420.42 507.391 412.25 507.38 403.902 L 507.38 107.675 C 507.392 99.326 505.174 91.168 501.195 83.601 Z M 472.649 403.903 C 472.64 408.158 471.58 412.306 469.317 416.632 C 465.382 424.161 457.458 432.257 445.404 439.968 C 427.383 451.564 400.411 462.027 367.714 469.33 C 335.014 476.652 296.61 480.935 255.585 480.926 C 193.085 480.971 136.606 470.931 97.252 455.547 C 77.558 447.901 62.259 438.923 52.532 429.918 C 47.637 425.42 44.118 420.941 41.855 416.631 C 39.592 412.304 38.532 408.157 38.521 403.902 L 38.521 354.982 C 58.609 370.096 86.817 382.168 120.552 391.092 C 159.446 401.321 205.782 407.195 255.585 407.204 C 321.999 407.177 382.205 396.804 426.924 379.424 C 444.903 372.408 460.267 364.193 472.648 354.847 L 472.648 403.903 L 472.649 403.903 Z M 472.649 320.411 C 470.18 324.774 466.65 329.146 461.885 333.563 C 446.499 347.831 418.641 361.262 382.697 370.672 C 346.765 380.135 302.885 385.766 255.586 385.758 C 192.529 385.785 135.515 375.708 95.397 360.039 C 75.32 352.239 59.56 343.054 49.289 333.563 C 44.523 329.146 40.993 324.774 38.523 320.421 L 38.523 256.244 C 58.61 271.356 86.818 283.429 120.553 292.353 C 159.447 302.573 205.783 308.447 255.586 308.457 C 322 308.429 382.206 298.058 426.925 280.676 C 444.904 273.659 460.268 265.455 472.649 256.108 L 472.649 320.411 Z M 472.649 221.672 C 470.18 226.034 466.65 230.406 461.885 234.814 C 446.499 249.082 418.641 262.522 382.697 271.923 C 346.765 281.386 302.885 287.018 255.586 287.009 C 192.529 287.037 135.515 276.961 95.397 261.299 C 75.32 253.499 59.56 244.305 49.289 234.814 C 44.523 230.406 40.993 226.034 38.523 221.672 L 38.523 157.494 C 58.61 172.616 86.818 184.68 120.553 193.612 C 159.447 203.841 205.783 209.715 255.586 209.715 C 322 209.689 382.206 199.324 426.925 181.935 C 444.904 174.919 460.268 166.714 472.649 157.367 L 472.649 221.672 Z M 472.649 122.923 C 470.18 127.286 466.65 131.667 461.885 136.075 C 446.499 150.352 418.641 163.782 382.697 173.193 C 346.765 182.656 302.885 188.287 255.586 188.279 C 192.529 188.306 135.515 178.23 95.397 162.56 C 75.32 154.752 59.56 145.566 49.289 136.076 C 44.523 131.668 40.993 127.287 38.523 122.932 L 38.523 107.675 C 38.534 103.42 39.594 99.281 41.856 94.954 C 45.792 87.415 53.714 79.329 65.768 71.61 C 83.79 60.015 110.761 49.552 143.459 42.257 C 176.158 34.925 214.56 30.652 255.586 30.661 C 318.087 30.616 374.566 40.656 413.92 56.039 C 433.613 63.677 448.901 72.655 458.639 81.669 C 463.535 86.167 467.053 90.639 469.317 94.955 C 471.579 99.282 472.638 103.421 472.649 107.676 L 472.649 122.923 Z" style=""/>
  </g>
</svg>