<?xml version="1.0" encoding="utf-8"?>
<svg viewBox="0 0 24 24" fill="#BBBBBB" xmlns="http://www.w3.org/2000/svg">
  <path d="M 21.117 0.175 L 7.291 0.175 C 5.826 0.175 4.633 2.165 4.633 4.609 L 4.633 15.547 L 3.037 15.547 C 1.572 15.547 0.379 17.404 0.379 19.687 C 0.379 21.969 1.572 23.825 3.037 23.825 L 16.863 23.825 C 18.329 23.825 19.522 21.835 19.522 19.391 L 19.522 8.453 L 21.117 8.453 C 22.583 8.453 23.777 6.596 23.777 4.313 C 23.777 2.031 22.583 0.175 21.117 0.175 Z M 3.037 22.643 C 2.188 22.643 1.442 21.261 1.442 19.687 C 1.442 18.111 2.188 16.73 3.037 16.73 L 14.798 16.73 C 14.398 17.652 14.196 18.664 14.205 19.687 C 14.196 20.71 14.4 21.722 14.804 22.643 L 3.037 22.643 Z M 18.459 19.391 C 18.459 21.252 17.616 22.643 16.863 22.643 L 16.045 22.643 C 15.514 21.772 15.242 20.738 15.268 19.687 C 15.232 18.546 15.556 17.427 16.183 16.525 L 16.938 15.547 L 5.697 15.547 L 5.697 4.609 C 5.697 2.748 6.538 1.357 7.291 1.357 L 19.14 1.357 C 18.683 2.365 18.45 3.48 18.459 4.609 L 18.459 19.391 Z M 21.117 7.27 L 19.522 7.27 L 19.522 4.609 C 19.496 3.45 19.802 2.31 20.398 1.357 L 21.117 1.357 C 21.968 1.357 22.713 2.739 22.713 4.313 C 22.713 5.889 21.968 7.27 21.117 7.27 Z M 7.823 4.905 L 16.332 4.905 L 16.332 6.087 L 7.823 6.087 L 7.823 4.905 Z M 7.823 8.453 L 16.332 8.453 L 16.332 9.635 L 7.823 9.635 L 7.823 8.453 Z M 7.823 12 L 16.332 12 L 16.332 13.183 L 7.823 13.183 L 7.823 12 Z" style="" transform="matrix(0.9999999999999999, 0, 0, 0.9999999999999999, 0, 0)"/>
</svg>